<svg version="1.1" xmlns="http://www.w3.org/2000/svg" xmlns:xlink="http://www.w3.org/1999/xlink" width="81.25" height="79.78333" viewBox="0,0,81.25,79.78333"><g transform="translate(-199.375,-140.10835)"><g data-paper-data="{&quot;isPaintingLayer&quot;:true}" fill-rule="nonzero" stroke-linejoin="miter" stroke-miterlimit="10" stroke-dasharray="" stroke-dashoffset="0" style="mix-blend-mode: normal"><path d="M279.125,180.00003c0,21.20313 -17.51686,38.39166 -39.125,38.39166c-21.60814,0 -39.125,-17.18853 -39.125,-38.39166c0,-21.20314 17.51686,-38.39167 39.125,-38.39167c21.60814,0 39.125,17.18854 39.125,38.39167z" data-paper-data="{&quot;index&quot;:null}" fill="#ffcc00" stroke="#000000" stroke-width="3" stroke-linecap="butt"/><path d="M254.09796,176.71876c-0.82326,0.10235 -1.64281,0.17372 -2.38687,0.26793c0,0 -3.05207,0.38151 -3.43358,-2.67056c-0.38151,-3.05207 2.67056,-3.43358 2.67056,-3.43358c2.4137,-0.29732 4.79864,-1.69234 7.18894,-1.24426c1.90313,0.35676 4.30918,0.88027 5.19293,2.60312c2.93662,5.72485 -1.40442,10.66065 -7.5873,7.92152c-1.18876,-0.52664 -1.38274,-2.01838 -1.64468,-3.44417z" data-paper-data="{&quot;index&quot;:null}" fill="#000000" stroke="none" stroke-width="0.5" stroke-linecap="butt"/><path d="M221.58417,176.71876c-0.82326,0.10235 -1.6428,0.17371 -2.38686,0.26793c0,0 -3.05208,0.38151 -3.43358,-2.67057c-0.38151,-3.05208 2.67056,-3.43358 2.67056,-3.43358c2.4137,-0.29732 4.79864,-1.69234 7.18895,-1.24426c1.90313,0.35676 4.30918,0.88028 5.19293,2.60312c2.93662,5.72485 -1.40442,10.66065 -7.58731,7.92153c-1.18876,-0.52664 -1.38273,-2.01837 -1.64468,-3.44417z" data-paper-data="{&quot;index&quot;:null}" fill="#000000" stroke="none" stroke-width="0.5" stroke-linecap="butt"/><path d="M255.87297,190.50832c0.90182,4.74219 -2.35239,8.70764 -5.71848,10.52722c-3.53649,1.91169 -11.18173,4.13385 -15.01451,0.68022" data-paper-data="{&quot;index&quot;:null}" fill="none" stroke="#000000" stroke-width="5.5" stroke-linecap="round"/><path d="M211.23824,168.24626c0,0 2.45434,-4.80698 4.24284,-6.43288c1.87417,-1.70379 6.75716,-3.56712 6.75716,-3.56712" data-paper-data="{&quot;index&quot;:null}" fill="none" stroke="#000000" stroke-width="5.5" stroke-linecap="round"/><path d="M257.76176,158.24624c0,0 4.883,1.86334 6.75716,3.56712c1.78849,1.6259 4.24284,6.43288 4.24284,6.43288" data-paper-data="{&quot;index&quot;:null}" fill="none" stroke="#000000" stroke-width="5.5" stroke-linecap="round"/></g></g></svg>