<svg version="1.1" xmlns="http://www.w3.org/2000/svg" xmlns:xlink="http://www.w3.org/1999/xlink" width="81.25" height="79.78333" viewBox="0,0,81.25,79.78333"><g transform="translate(-199.375,-140.10834)"><g data-paper-data="{&quot;isPaintingLayer&quot;:true}" fill-rule="nonzero" stroke-linejoin="miter" stroke-miterlimit="10" stroke-dasharray="" stroke-dashoffset="0" style="mix-blend-mode: normal"><path d="M240,141.60834c21.60814,0 39.125,17.18853 39.125,38.39167c0,21.20313 -17.51686,38.39166 -39.125,38.39166c-21.60814,0 -39.125,-17.18853 -39.125,-38.39166c0,-21.20313 17.51686,-38.39167 39.125,-38.39167z" data-paper-data="{&quot;index&quot;:null}" fill="#ffcc00" stroke="#000000" stroke-width="3" stroke-linecap="butt"/><path d="M231.375,171.26014c0,3.94063 -2.68629,1.28498 -6,1.28498c-3.31371,0 -6,2.65565 -6,-1.28498c0,-3.94063 2.68629,-7.13513 6,-7.13513c3.31371,0 6,3.19451 6,7.13513z" data-paper-data="{&quot;index&quot;:null}" fill="#000000" stroke="none" stroke-width="0" stroke-linecap="butt"/><path d="M250.14211,183.82292c-1.43258,6.986 -7.18839,7.20159 -10.69047,7.16855c-3.23872,-0.03055 -8.65929,-1.02793 -9.59373,-7.35992" data-paper-data="{&quot;index&quot;:null}" fill="none" stroke="#000000" stroke-width="5" stroke-linecap="round"/><path d="M254.625,164.125c3.31371,0 6,3.1945 6,7.13513c0,3.94063 -2.68629,1.28498 -6,1.28498c-3.31371,0 -6,2.65565 -6,-1.28498c0,-3.94062 2.68629,-7.13513 6,-7.13513z" data-paper-data="{&quot;index&quot;:null}" fill="#000000" stroke="none" stroke-width="0" stroke-linecap="butt"/><path d="M256.67742,201.6656c1.51535,1.9884 -0.47305,3.50374 -0.47305,3.50374c-0.6628,0.50512 -2.31979,1.76791 -2.98259,2.27302c0,0 -1.9884,1.51535 -3.50374,-0.47305c-1.51535,-1.9884 0.47305,-3.50374 0.47305,-3.50374c0.6628,-0.50512 1.3256,-1.01023 1.9884,-1.51535l0.9942,-0.75767c0,0 1.9884,-1.51535 3.50374,0.47305z" data-paper-data="{&quot;index&quot;:null}" fill="#ffcc00" stroke="#000000" stroke-width="2.5" stroke-linecap="butt"/><path d="M240.12099,192.73476c3.39551,-2.31971 9.02287,-1.84986 11.18781,1.96467c0.32456,0.57186 0.26393,5.08087 0.26393,6.11803c-0.01554,3.50885 -0.38418,8.93769 -3.23223,11.51777c-3.71044,3.36133 -11.1008,1.23187 -13.29435,-3.23473c-1.29153,-2.62986 -0.11547,-8.29127 0.02969,-11.15757c0.26811,-5.29437 -0.24875,-10.59154 -0.2531,-15.87547c0,0 0,-2.5 2.5,-2.5c2.5,0 2.5,2.5 2.5,2.5c-0.00316,3.55217 0.22235,7.10874 0.29825,10.6673z" data-paper-data="{&quot;index&quot;:null}" fill="#ffcc00" stroke="#000000" stroke-width="2.5" stroke-linecap="butt"/><path d="M250.07273,199.56746h-5.5" data-paper-data="{&quot;index&quot;:null}" fill="none" stroke="#000000" stroke-width="2.5" stroke-linecap="round"/><path d="M250.07273,203.31746h-5.5" data-paper-data="{&quot;index&quot;:null}" fill="none" stroke="#000000" stroke-width="2.5" stroke-linecap="round"/><path d="M250.07273,207.06746h-5.5" data-paper-data="{&quot;index&quot;:null}" fill="none" stroke="#000000" stroke-width="2.5" stroke-linecap="round"/></g></g></svg>
