<svg version="1.1" xmlns="http://www.w3.org/2000/svg" xmlns:xlink="http://www.w3.org/1999/xlink" width="81.25" height="79.78333" viewBox="0,0,81.25,79.78333"><g transform="translate(-199.375,-140.10834)"><g data-paper-data="{&quot;isPaintingLayer&quot;:true}" fill-rule="nonzero" stroke-linejoin="miter" stroke-miterlimit="10" stroke-dasharray="" stroke-dashoffset="0" style="mix-blend-mode: normal"><path d="M240,141.60834c21.60814,0 39.125,17.18853 39.125,38.39167c0,21.20313 -17.51686,38.39166 -39.125,38.39166c-21.60814,0 -39.125,-17.18853 -39.125,-38.39166c0,-21.20313 17.51686,-38.39167 39.125,-38.39167z" data-paper-data="{&quot;index&quot;:null}" fill="#ffcc00" stroke="#000000" stroke-width="3" stroke-linecap="butt"/><path d="M259.75,187.64492c0,8.18072 -8.84238,14.8125 -19.75,14.8125c-10.90762,0 -19.75,-6.63178 -19.75,-14.8125c0,-8.18072 8.84238,-2.9625 19.75,-2.9625c10.90762,0 19.75,-5.21822 19.75,2.9625z" data-paper-data="{&quot;index&quot;:null}" fill="#000000" stroke="none" stroke-width="0" stroke-linecap="butt"/><path d="M257.875,186.35438c0,2.63705 -8.00291,4.77481 -17.875,4.77481c-9.87209,0 -17.875,-2.13776 -17.875,-4.77481c0,-2.63705 8.00291,1.29504 17.875,1.29504c9.87209,0 17.875,-3.93209 17.875,-1.29504z" data-paper-data="{&quot;index&quot;:null}" fill="#ffffff" stroke="none" stroke-width="0" stroke-linecap="butt"/><path d="M257.48873,174.38075l-11,-6.61765l11,-7.5" data-paper-data="{&quot;index&quot;:null}" fill="none" stroke="#000000" stroke-width="4.5" stroke-linecap="round"/><path d="M222.51128,160.26311l11,7.5l-11,6.61765" data-paper-data="{&quot;index&quot;:null}" fill="none" stroke="#000000" stroke-width="4.5" stroke-linecap="round"/></g></g></svg>