<svg version="1.1" xmlns="http://www.w3.org/2000/svg" xmlns:xlink="http://www.w3.org/1999/xlink" width="81.25" height="85.81396" viewBox="0,0,81.25,85.81396"><g transform="translate(-199.375,-134.0777)"><g data-paper-data="{&quot;isPaintingLayer&quot;:true}" fill-rule="nonzero" stroke-linejoin="miter" stroke-miterlimit="10" stroke-dasharray="" stroke-dashoffset="0" style="mix-blend-mode: normal"><path d="M267.69288,135.57771c5.49,0 2.75,12.11523 2.75,17.5c0,5.38477 -7.7198,8.5 -12,8.5c-4.2802,0 -3.5,-3.11523 -3.5,-8.5c0,-5.38477 7.26,-17.5 12.75,-17.5z" data-paper-data="{&quot;index&quot;:null}" fill="#c940ff" stroke="#000000" stroke-width="3" stroke-linecap="butt"/><path d="M225.05712,153.0777c0,5.38478 0.78021,8.5 -3.5,8.5c-4.28021,0 -12,-3.11522 -12,-8.5c0,-5.38478 -2.74001,-17.5 2.75,-17.5c5.49001,0 12.75,12.11522 12.75,17.5z" data-paper-data="{&quot;index&quot;:null}" fill="#c940ff" stroke="#000000" stroke-width="3" stroke-linecap="butt"/><path d="M240,141.60834c21.60814,0 39.125,17.18853 39.125,38.39167c0,21.20313 -17.51686,38.39166 -39.125,38.39166c-21.60814,0 -39.125,-17.18853 -39.125,-38.39166c0,-21.20313 17.51686,-38.39167 39.125,-38.39167z" data-paper-data="{&quot;index&quot;:null}" fill="#b800ff" stroke="#000000" stroke-width="3" stroke-linecap="butt"/><path d="M219.23822,159.24629c0,0 4.88299,1.86333 6.75716,3.56712c1.7885,1.6259 4.24284,6.43288 4.24284,6.43288" data-paper-data="{&quot;index&quot;:null}" fill="none" stroke="#000000" stroke-width="5.5" stroke-linecap="round"/><path d="M231.375,171.26014c0,3.94063 -2.68629,7.13514 -6,7.13514c-3.31371,0 -6,-3.19451 -6,-7.13514c0,-3.94063 2.68629,-7.13513 6,-7.13513c3.31371,0 6,3.19451 6,7.13513z" data-paper-data="{&quot;index&quot;:null}" fill="#000000" stroke="none" stroke-width="0" stroke-linecap="butt"/><path d="M249.76178,169.24629c0,0 2.45434,-4.80698 4.24284,-6.43288c1.87417,-1.70379 6.75716,-3.56712 6.75716,-3.56712" data-paper-data="{&quot;index&quot;:null}" fill="none" stroke="#000000" stroke-width="5.5" stroke-linecap="round"/><path d="M254.625,164.125c3.31371,0 6,3.1945 6,7.13513c0,3.94063 -2.68629,7.13514 -6,7.13514c-3.31371,0 -6,-3.19451 -6,-7.13514c0,-3.94062 2.68629,-7.13513 6,-7.13513z" data-paper-data="{&quot;index&quot;:null}" fill="#000000" stroke="none" stroke-width="0" stroke-linecap="butt"/><path d="M253.25,187.94082c-1.22079,8.27233 -8.30242,9.57533 -12.53359,9.61525c-4.57524,0.04316 -12.09483,-0.2385 -13.96641,-9.36525" data-paper-data="{&quot;index&quot;:null}" fill="none" stroke="#000000" stroke-width="5" stroke-linecap="round"/></g></g></svg>