<svg version="1.1" xmlns="http://www.w3.org/2000/svg" xmlns:xlink="http://www.w3.org/1999/xlink" width="81.25" height="79.78333" viewBox="0,0,81.25,79.78333"><g transform="translate(-199.375,-140.10834)"><g data-paper-data="{&quot;isPaintingLayer&quot;:true}" fill-rule="nonzero" stroke-linejoin="miter" stroke-miterlimit="10" stroke-dasharray="" stroke-dashoffset="0" style="mix-blend-mode: normal"><path d="M279.125,180.00001c0,21.20313 -17.51686,38.39166 -39.125,38.39166c-21.60814,0 -39.125,-17.18853 -39.125,-38.39166c0,-21.20314 17.51686,-38.39167 39.125,-38.39167c21.60814,0 39.125,17.18854 39.125,38.39167z" data-paper-data="{&quot;index&quot;:null}" fill="#ffcc00" stroke="#000000" stroke-width="3" stroke-linecap="butt"/><path d="M240,184.68242c10.90762,0 19.75,-5.21822 19.75,2.9625c0,8.18072 -8.84238,14.8125 -19.75,14.8125c-10.90762,0 -19.75,-6.63178 -19.75,-14.8125c0,-8.18072 8.84238,-2.9625 19.75,-2.9625z" data-paper-data="{&quot;index&quot;:null}" fill="#000000" stroke="none" stroke-width="0" stroke-linecap="butt"/><path d="M240,187.64942c9.87209,0 17.875,-3.93209 17.875,-1.29504c0,2.63705 -8.00291,4.77481 -17.875,4.77481c-9.87209,0 -17.875,-2.13776 -17.875,-4.77481c0,-2.63705 8.00291,1.29504 17.875,1.29504z" data-paper-data="{&quot;index&quot;:null}" fill="#ffffff" stroke="none" stroke-width="0" stroke-linecap="butt"/><path d="M267.50185,179.873c2.15124,3.6017 2.20983,7.52806 0.13088,8.76979c-2.07896,1.24173 -5.5082,-0.6714 -7.65944,-4.27309c-2.15124,-3.6017 -1.31422,-10.751 -1.31422,-10.751c0,0 6.69155,2.6526 8.84278,6.2543z" data-paper-data="{&quot;index&quot;:null}" fill="#66c7ff" stroke="#000000" stroke-width="3" stroke-linecap="butt"/><path d="M221.31907,170.0387c0.25091,-4.00609 3.52728,-5.29353 6.5198,-5.29353c2.99252,0 6.57537,1.11604 6.98549,5.29353" data-paper-data="{&quot;index&quot;:null}" fill="none" stroke="#000000" stroke-width="4.5" stroke-linecap="round"/><path d="M245.17564,170.0387c0.41012,-4.17749 3.99297,-5.29353 6.98549,-5.29353c2.99252,0 6.26889,1.28744 6.5198,5.29353" data-paper-data="{&quot;index&quot;:null}" fill="none" stroke="#000000" stroke-width="4.5" stroke-linecap="round"/><path d="M221.34093,173.6187c0,0 0.83702,7.1493 -1.31422,10.751c-2.15124,3.60169 -5.58048,5.51482 -7.65944,4.27309c-2.07895,-1.24173 -2.02036,-5.16809 0.13088,-8.76979c2.15123,-3.6017 8.84278,-6.2543 8.84278,-6.2543z" data-paper-data="{&quot;index&quot;:null}" fill="#66c7ff" stroke="#000000" stroke-width="3" stroke-linecap="butt"/></g></g></svg>