<svg version="1.1" xmlns="http://www.w3.org/2000/svg" xmlns:xlink="http://www.w3.org/1999/xlink" width="81.25" height="79.78333" viewBox="0,0,81.25,79.78333"><g transform="translate(-199.375,-140.10834)"><g data-paper-data="{&quot;isPaintingLayer&quot;:true}" fill-rule="nonzero" stroke-linejoin="miter" stroke-miterlimit="10" stroke-dasharray="" stroke-dashoffset="0" style="mix-blend-mode: normal"><path d="M240,141.60834c21.60814,0 39.125,17.18853 39.125,38.39167c0,21.20313 -17.51686,38.39166 -39.125,38.39166c-21.60814,0 -39.125,-17.18853 -39.125,-38.39166c0,-21.20313 17.51686,-38.39167 39.125,-38.39167z" data-paper-data="{&quot;index&quot;:null}" fill="#ffcc00" stroke="#000000" stroke-width="3" stroke-linecap="butt"/><path d="M254.625,164.125c3.31371,0 6,3.1945 6,7.13513c0,3.94063 -2.68629,7.13514 -6,7.13514c-3.31371,0 -6,-3.19451 -6,-7.13514c0,-3.94062 2.68629,-7.13513 6,-7.13513z" data-paper-data="{&quot;index&quot;:null}" fill="#000000" stroke="none" stroke-width="0" stroke-linecap="butt"/><path d="M231.375,171.26014c0,3.94063 -2.68629,7.13514 -6,7.13514c-3.31371,0 -6,-3.19451 -6,-7.13514c0,-3.94063 2.68629,-7.13513 6,-7.13513c3.31371,0 6,3.19451 6,7.13513z" data-paper-data="{&quot;index&quot;:null}" fill="#000000" stroke="none" stroke-width="0" stroke-linecap="butt"/><path d="M211.23823,167.74629c0,0 2.45434,-4.80698 4.24284,-6.43288c1.87417,-1.70379 6.75716,-3.56712 6.75716,-3.56712" data-paper-data="{&quot;index&quot;:null}" fill="none" stroke="#000000" stroke-width="5.5" stroke-linecap="round"/><path d="M257.76177,157.74629c0,0 4.88299,1.86333 6.75716,3.56712c1.7885,1.6259 4.24284,6.43288 4.24284,6.43288" data-paper-data="{&quot;index&quot;:null}" fill="none" stroke="#000000" stroke-width="5.5" stroke-linecap="round"/><path d="M226.75,197.55916c1.22079,-8.27233 8.30242,-9.57533 12.53359,-9.61525c4.57524,-0.04316 12.09483,0.2385 13.96641,9.36525" data-paper-data="{&quot;index&quot;:null}" fill="none" stroke="#000000" stroke-width="5" stroke-linecap="round"/><path d="M228.78051,186.5346c0,4.19524 -1.96306,7.59615 -4.38462,7.59615c-2.42156,0 -4.38462,-3.40091 -4.38462,-7.59615c0,-4.19524 4.38462,-9.90385 4.38462,-9.90385c0,0 4.38462,5.70861 4.38462,9.90385z" fill="#66c7ff" stroke="#000000" stroke-width="3" stroke-linecap="butt"/></g></g></svg>