<svg version="1.1" xmlns="http://www.w3.org/2000/svg" xmlns:xlink="http://www.w3.org/1999/xlink" width="81.25" height="79.78333" viewBox="0,0,81.25,79.78333"><g transform="translate(-199.375,-140.10834)"><g data-paper-data="{&quot;isPaintingLayer&quot;:true}" fill-rule="nonzero" stroke="#000000" stroke-linejoin="miter" stroke-miterlimit="10" stroke-dasharray="" stroke-dashoffset="0" style="mix-blend-mode: normal"><path d="M279.125,180.00001c0,21.20313 -17.51686,38.39166 -39.125,38.39166c-21.60814,0 -39.125,-17.18853 -39.125,-38.39166c0,-21.20314 17.51686,-38.39167 39.125,-38.39167c21.60814,0 39.125,17.18854 39.125,38.39167z" data-paper-data="{&quot;index&quot;:null}" fill="#ffcc00" stroke-width="3" stroke-linecap="butt"/><path d="M226.75,197.55916c1.22079,-8.27233 8.30242,-9.57533 12.53359,-9.61525c4.57524,-0.04316 12.09483,0.2385 13.96641,9.36525" data-paper-data="{&quot;index&quot;:null}" fill="none" stroke-width="5" stroke-linecap="round"/><path d="M260.33969,176.01634c0,0 -5.21609,0.3286 -7.62795,-0.44494c-2.3016,-0.73817 -6.52788,-4.09517 -6.52788,-4.09517" data-paper-data="{&quot;index&quot;:null}" fill="none" stroke-width="5.5" stroke-linecap="round"/><path d="M233.81614,171.47623c0,0 -4.22628,3.35701 -6.52788,4.09518c-2.41186,0.77354 -7.62795,0.44494 -7.62795,0.44494" data-paper-data="{&quot;index&quot;:null}" fill="none" stroke-width="5.5" stroke-linecap="round"/></g></g></svg>