<svg version="1.1" xmlns="http://www.w3.org/2000/svg" xmlns:xlink="http://www.w3.org/1999/xlink" width="81.25" height="79.78333" viewBox="0,0,81.25,79.78333"><g transform="translate(-199.375,-140.10834)"><g data-paper-data="{&quot;isPaintingLayer&quot;:true}" fill-rule="nonzero" stroke-linejoin="miter" stroke-miterlimit="10" stroke-dasharray="" stroke-dashoffset="0" style="mix-blend-mode: normal"><path d="M240,141.60834c21.60814,0 39.125,17.18853 39.125,38.39167c0,21.20313 -17.51686,38.39166 -39.125,38.39166c-21.60814,0 -39.125,-17.18853 -39.125,-38.39166c0,-21.20313 17.51686,-38.39167 39.125,-38.39167z" data-paper-data="{&quot;index&quot;:null}" fill="#ffcc00" stroke="#000000" stroke-width="3" stroke-linecap="butt"/><path d="M230.85914,178.44272l-6.49705,-6.39861l6.49705,-7.92209" data-paper-data="{&quot;index&quot;:null}" fill="none" stroke="#000000" stroke-width="5.5" stroke-linecap="round"/><path d="M218.06192,164.12202l6.49705,7.92209l-6.49705,6.39861" data-paper-data="{&quot;index&quot;:null}" fill="none" stroke="#000000" stroke-width="5.5" stroke-linecap="round"/><path d="M261.93808,178.44273l-6.49705,-6.39862l6.49705,-7.92209" data-paper-data="{&quot;index&quot;:null}" fill="none" stroke="#000000" stroke-width="5.5" stroke-linecap="round"/><path d="M249.14086,164.12202l6.49705,7.92209l-6.49705,6.39862" data-paper-data="{&quot;index&quot;:null}" fill="none" stroke="#000000" stroke-width="5.5" stroke-linecap="round"/><path d="M240,183.86631c6.25997,0 11.33468,5.5525 11.33468,12.40186c0,6.84936 -5.07471,12.40186 -11.33468,12.40186c-6.25997,0 -11.33468,-5.5525 -11.33468,-12.40186c0,-6.84936 5.07471,-12.40186 11.33468,-12.40186z" data-paper-data="{&quot;index&quot;:null}" fill="#000000" stroke="none" stroke-width="0" stroke-linecap="butt"/><path d="M257.76176,152.76174c0,0 4.88299,1.86333 6.75716,3.56712c1.7885,1.6259 4.24284,6.43288 4.24284,6.43288" data-paper-data="{&quot;index&quot;:null}" fill="none" stroke="#000000" stroke-width="5.5" stroke-linecap="round"/><path d="M211.23824,162.76174c0,0 2.45434,-4.80698 4.24284,-6.43288c1.87417,-1.70379 6.75716,-3.56712 6.75716,-3.56712" data-paper-data="{&quot;index&quot;:null}" fill="none" stroke="#000000" stroke-width="5.5" stroke-linecap="round"/></g></g></svg>
