<svg version="1.1" xmlns="http://www.w3.org/2000/svg" xmlns:xlink="http://www.w3.org/1999/xlink" width="81.25" height="79.78333" viewBox="0,0,81.25,79.78333"><g transform="translate(-199.37501,-140.10835)"><g data-paper-data="{&quot;isPaintingLayer&quot;:true}" fill-rule="nonzero" stroke="#000000" stroke-linejoin="miter" stroke-miterlimit="10" stroke-dasharray="" stroke-dashoffset="0" style="mix-blend-mode: normal"><path d="M279.12501,180.00002c0,21.20313 -17.51686,38.39166 -39.125,38.39166c-21.60814,0 -39.125,-17.18853 -39.125,-38.39166c0,-21.20314 17.51686,-38.39167 39.125,-38.39167c21.60814,0 39.125,17.18854 39.125,38.39167z" data-paper-data="{&quot;index&quot;:null}" fill="#ffcc00" stroke-width="3" stroke-linecap="butt"/><path d="M234.82439,173.07849c-0.41012,4.17749 -3.99298,5.29353 -6.98549,5.29353c-2.99252,0 -6.26889,-1.28744 -6.51979,-5.29353" data-paper-data="{&quot;index&quot;:null}" fill="none" stroke-width="4.5" stroke-linecap="round"/><path d="M222.23826,157.74629c0,0 -2.45434,4.80698 -4.24284,6.43288c-1.87417,1.70379 -6.75716,3.56712 -6.75716,3.56712" data-paper-data="{&quot;index&quot;:null}" fill="none" stroke-width="5.5" stroke-linecap="round"/><path d="M268.76177,167.74629c0,0 -4.88299,-1.86333 -6.75716,-3.56712c-1.7885,-1.6259 -4.24284,-6.43288 -4.24284,-6.43288" data-paper-data="{&quot;index&quot;:null}" fill="none" stroke-width="5.5" stroke-linecap="round"/><path d="M258.68092,173.07849c-0.2509,4.00609 -3.52727,5.29353 -6.51979,5.29353c-2.99251,0 -6.57537,-1.11604 -6.98549,-5.29353" data-paper-data="{&quot;index&quot;:null}" fill="none" stroke-width="4.5" stroke-linecap="round"/><path d="M250.33334,193.5l-20.66667,-0.33333" fill="none" stroke-width="5" stroke-linecap="round"/></g></g></svg>