<svg version="1.1" xmlns="http://www.w3.org/2000/svg" xmlns:xlink="http://www.w3.org/1999/xlink" width="81.25" height="79.78333" viewBox="0,0,81.25,79.78333"><g transform="translate(-199.375,-140.10834)"><g data-paper-data="{&quot;isPaintingLayer&quot;:true}" fill-rule="nonzero" stroke="#000000" stroke-linejoin="miter" stroke-miterlimit="10" stroke-dasharray="" stroke-dashoffset="0" style="mix-blend-mode: normal"><path d="M240,141.60834c21.60814,0 39.125,17.18853 39.125,38.39167c0,21.20313 -17.51686,38.39166 -39.125,38.39166c-21.60814,0 -39.125,-17.18853 -39.125,-38.39166c0,-21.20313 17.51686,-38.39167 39.125,-38.39167z" data-paper-data="{&quot;index&quot;:null}" fill="#ffcc00" stroke-width="3" stroke-linecap="butt"/><path d="M221.31907,172.5387c0.25091,-4.00609 3.52728,-5.29353 6.5198,-5.29353c2.99252,0 6.57537,1.11604 6.98549,5.29353" data-paper-data="{&quot;index&quot;:null}" fill="none" stroke-width="4.5" stroke-linecap="round"/><path d="M245.17564,172.5387c0.41012,-4.17749 3.99297,-5.29353 6.98549,-5.29353c2.99252,0 6.26889,1.28744 6.5198,5.29353" data-paper-data="{&quot;index&quot;:null}" fill="none" stroke-width="4.5" stroke-linecap="round"/><path d="M256.45,185.84083c-2.32358,9.12675 -11.65923,9.40841 -17.33943,9.36525c-5.25304,-0.03992 -14.04495,-1.34292 -15.56057,-9.61525" data-paper-data="{&quot;index&quot;:null}" fill="none" stroke-width="5" stroke-linecap="round"/><path d="M258.2644,186.90379c0,0 6.42528,14.45431 1.44275,18.05515c-4.98252,3.60084 -16.69032,-7.03581 -16.69032,-7.03581z" fill="#ff0000" stroke-width="2.5" stroke-linecap="butt"/><path d="M250.6406,192.41345l4.88199,6.75526" fill="none" stroke-width="2" stroke-linecap="round"/></g></g></svg>