<svg version="1.1" xmlns="http://www.w3.org/2000/svg" xmlns:xlink="http://www.w3.org/1999/xlink" width="81.25" height="79.78333" viewBox="0,0,81.25,79.78333"><g transform="translate(-199.375,-140.10834)"><g data-paper-data="{&quot;isPaintingLayer&quot;:true}" fill-rule="nonzero" stroke-linejoin="miter" stroke-miterlimit="10" stroke-dasharray="" stroke-dashoffset="0" style="mix-blend-mode: normal"><path d="M279.125,180.00001c0,21.20313 -17.51686,38.39166 -39.125,38.39166c-21.60814,0 -39.125,-17.18853 -39.125,-38.39166c0,-21.20314 17.51686,-38.39167 39.125,-38.39167c21.60814,0 39.125,17.18854 39.125,38.39167z" data-paper-data="{&quot;index&quot;:null}" fill="#ffcc00" stroke="#000000" stroke-width="3" stroke-linecap="butt"/><path d="M240,184.68242c10.90762,0 19.75,-5.21822 19.75,2.9625c0,8.18072 -8.84238,14.8125 -19.75,14.8125c-10.90762,0 -19.75,-6.63178 -19.75,-14.8125c0,-8.18072 8.84238,-2.9625 19.75,-2.9625z" data-paper-data="{&quot;index&quot;:null}" fill="#000000" stroke="none" stroke-width="0" stroke-linecap="butt"/><path d="M253.16666,190.5c0,0 -4.5616,21.66667 -13.16666,21.66667c-8.60507,0 -13.16667,-21.66667 -13.16667,-21.66667z" data-paper-data="{&quot;index&quot;:null}" fill="#ff0000" stroke="#000000" stroke-width="3.5" stroke-linecap="butt"/><path d="M240,202.16667v-11.66667" data-paper-data="{&quot;index&quot;:null}" fill="none" stroke="#000000" stroke-width="2.5" stroke-linecap="round"/><path d="M257.48872,174.38076l-11,-6.61765l11,-7.5" data-paper-data="{&quot;index&quot;:null}" fill="none" stroke="#000000" stroke-width="4.5" stroke-linecap="round"/><path d="M222.51128,160.26311l11,7.5l-11,6.61765" data-paper-data="{&quot;index&quot;:null}" fill="none" stroke="#000000" stroke-width="4.5" stroke-linecap="round"/></g></g></svg>