<svg version="1.1" xmlns="http://www.w3.org/2000/svg" xmlns:xlink="http://www.w3.org/1999/xlink" width="81.25" height="79.78333" viewBox="0,0,81.25,79.78333"><g transform="translate(-199.375,-140.10834)"><g data-paper-data="{&quot;isPaintingLayer&quot;:true}" fill-rule="nonzero" stroke-linejoin="miter" stroke-miterlimit="10" stroke-dasharray="" stroke-dashoffset="0" style="mix-blend-mode: normal"><path d="M279.125,180.00001c0,21.20313 -17.51686,38.39166 -39.125,38.39166c-21.60814,0 -39.125,-17.18853 -39.125,-38.39166c0,-21.20314 17.51686,-38.39167 39.125,-38.39167c21.60814,0 39.125,17.18854 39.125,38.39167z" data-paper-data="{&quot;index&quot;:null}" fill="#ffcc00" stroke="#000000" stroke-width="3" stroke-linecap="butt"/><path d="M240,184.68242c10.90762,0 19.75,-5.21822 19.75,2.9625c0,8.18072 -8.84238,14.8125 -19.75,14.8125c-10.90762,0 -19.75,-6.63178 -19.75,-14.8125c0,-8.18072 8.84238,-2.9625 19.75,-2.9625z" data-paper-data="{&quot;index&quot;:null}" fill="#000000" stroke="none" stroke-width="0" stroke-linecap="butt"/><path d="M221.31908,170.0387c0.2509,-4.00609 3.52727,-5.29353 6.51979,-5.29353c2.99251,0 6.57537,1.11604 6.98549,5.29353" data-paper-data="{&quot;index&quot;:null}" fill="none" stroke="#000000" stroke-width="4.5" stroke-linecap="round"/><path d="M245.17564,170.0387c0.41012,-4.17749 3.99297,-5.29353 6.98549,-5.29353c2.99252,0 6.26889,1.28744 6.5198,5.29353" data-paper-data="{&quot;index&quot;:null}" fill="none" stroke="#000000" stroke-width="4.5" stroke-linecap="round"/><path d="M240,187.20894c9.80305,0 17.75,-6.14255 17.75,0.74375c0,6.8863 -7.94695,12.46875 -17.75,12.46875c-9.80305,0 -17.75,-5.58245 -17.75,-12.46875c0,-6.8863 7.94695,-0.74375 17.75,-0.74375z" data-paper-data="{&quot;index&quot;:null}" fill="#ffffff" stroke="none" stroke-width="0" stroke-linecap="butt"/><path d="M222.26127,190.46408c0,0 11.31597,2.02654 16.9997,2.04017c5.8921,0.01413 17.7503,-1.95683 17.7503,-1.95683" fill="none" stroke="#000000" stroke-width="2.5" stroke-linecap="round"/></g></g></svg>