<svg version="1.1" xmlns="http://www.w3.org/2000/svg" xmlns:xlink="http://www.w3.org/1999/xlink" width="81.25" height="79.78333" viewBox="0,0,81.25,79.78333"><g transform="translate(-199.375,-140.10834)"><g data-paper-data="{&quot;isPaintingLayer&quot;:true}" fill-rule="nonzero" stroke="#000000" stroke-linejoin="miter" stroke-miterlimit="10" stroke-dasharray="" stroke-dashoffset="0" style="mix-blend-mode: normal"><path d="M240,141.60834c21.60814,0 39.125,17.18853 39.125,38.39167c0,21.20313 -17.51686,38.39166 -39.125,38.39166c-21.60814,0 -39.125,-17.18853 -39.125,-38.39166c0,-21.20313 17.51686,-38.39167 39.125,-38.39167z" data-paper-data="{&quot;index&quot;:null}" fill="#ffcc00" stroke-width="3" stroke-linecap="butt"/><path d="M226.75,197.30916c1.87158,-9.12675 9.39117,-9.40841 13.96641,-9.36525c4.23117,0.03992 11.3128,1.34292 12.53359,9.61525" data-paper-data="{&quot;index&quot;:null}" fill="none" stroke-width="5" stroke-linecap="round"/><path d="M245.17564,172.5387c0.41012,-4.17749 3.99297,-5.29353 6.98549,-5.29353c2.99252,0 6.26889,1.28744 6.5198,5.29353" data-paper-data="{&quot;index&quot;:null}" fill="none" stroke-width="4.5" stroke-linecap="round"/><path d="M221.31907,172.5387c0.25091,-4.00609 3.52728,-5.29353 6.5198,-5.29353c2.99252,0 6.57537,1.11604 6.98549,5.29353" data-paper-data="{&quot;index&quot;:null}" fill="none" stroke-width="4.5" stroke-linecap="round"/><path d="M226.78051,154.0346c0,4.19524 -1.96306,7.59615 -4.38462,7.59615c-2.42156,0 -4.38462,-3.40091 -4.38462,-7.59615c0,-4.19524 4.38462,-9.90385 4.38462,-9.90385c0,0 4.38462,5.70861 4.38462,9.90385z" fill="#66c7ff" stroke-width="3" stroke-linecap="butt"/></g></g></svg>