<svg version="1.1" xmlns="http://www.w3.org/2000/svg" xmlns:xlink="http://www.w3.org/1999/xlink" width="81.25" height="79.78333" viewBox="0,0,81.25,79.78333"><g transform="translate(-199.375,-140.10834)"><g data-paper-data="{&quot;isPaintingLayer&quot;:true}" fill-rule="nonzero" stroke="#000000" stroke-linejoin="miter" stroke-miterlimit="10" stroke-dasharray="" stroke-dashoffset="0" style="mix-blend-mode: normal"><path d="M240,141.60834c21.60814,0 39.125,17.18853 39.125,38.39167c0,21.20313 -17.51686,38.39166 -39.125,38.39166c-21.60814,0 -39.125,-17.18853 -39.125,-38.39166c0,-21.20313 17.51686,-38.39167 39.125,-38.39167z" data-paper-data="{&quot;index&quot;:null}" fill="#ffcc00" stroke-width="3" stroke-linecap="butt"/><path d="M247.76178,169.24629c0,0 2.45434,-4.80698 4.24284,-6.43288c1.87417,-1.70379 6.75716,-3.56712 6.75716,-3.56712" data-paper-data="{&quot;index&quot;:null}" fill="none" stroke-width="5.5" stroke-linecap="round"/><path d="M221.23822,159.24629c0,0 4.88299,1.86333 6.75716,3.56712c1.7885,1.6259 4.24284,6.43288 4.24284,6.43288" data-paper-data="{&quot;index&quot;:null}" fill="none" stroke-width="5.5" stroke-linecap="round"/><path d="M232.07436,173.49517c-0.41012,4.17749 -3.99297,5.29353 -6.98549,5.29353c-2.99252,0 -6.26889,-1.28744 -6.5198,-5.29353" data-paper-data="{&quot;index&quot;:null}" fill="none" stroke-width="4.5" stroke-linecap="round"/><path d="M261.43093,173.49517c-0.25091,4.00609 -3.52728,5.29353 -6.5198,5.29353c-2.99252,0 -6.57537,-1.11604 -6.98549,-5.29353" data-paper-data="{&quot;index&quot;:null}" fill="none" stroke-width="4.5" stroke-linecap="round"/><path d="M226.75,197.30916c1.87158,-9.12675 9.39117,-9.40841 13.96641,-9.36525c4.23117,0.03992 11.3128,1.34292 12.53359,9.61525" data-paper-data="{&quot;index&quot;:null}" fill="none" stroke-width="5" stroke-linecap="round"/><g data-paper-data="{&quot;index&quot;:null}"><path d="M227.15017,198.11911c0.63891,1.71975 0.67706,3.83711 0.17531,5.77926c-0.40327,1.56098 -3.6144,5.57326 -6.05504,6.01754c-2.95311,0.53758 -5.21888,-2.73603 -5.72252,-3.61179c-0.21891,-0.38066 -0.17628,-2.25505 -0.39009,-2.36553c-1.28989,-0.66658 -1.63135,-0.09592 -2.76062,-1.15097c-0.4945,-0.462 -0.76373,-2.41513 -1.4044,-2.63316c-3.95377,-1.34553 -4.58105,-1.85967 -4.81488,-6.31688c-0.08665,-1.65171 3.46471,-5.03633 4.43717,-5.39762c3.57751,-1.32911 4.48297,-0.47265 7.67351,0.76556c0.27477,0.10664 4.66666,-2.46088 5.30269,-2.93406c2.00156,-1.48909 8.8775,-4.94121 9.64332,-4.56751c3.67982,1.79563 -2.60231,9.31575 -3.54825,11.96257c-0.23747,0.66448 -2.5362,4.45259 -2.5362,4.45259z" fill="#a7bbef" stroke-width="4" stroke-linecap="butt"/><path d="M226.78067,198.08497c0,0 -4.81339,-1.16953 -6.0969,-2.55902c-1.25607,-1.35979 -1.5236,-5.69074 -1.5236,-5.69074" fill="none" stroke-width="3.5" stroke-linecap="round"/></g><g data-paper-data="{&quot;index&quot;:null}"><path d="M250.31363,193.66653c-0.94593,-2.64683 -7.22808,-10.16694 -3.54826,-11.96257c0.76583,-0.37369 7.64177,3.07842 9.64333,4.56751c0.63603,0.47319 5.02792,3.0407 5.30269,2.93407c3.19054,-1.23821 4.096,-2.09467 7.67352,-0.76557c0.97246,0.36129 4.52382,3.74591 4.43716,5.39762c-0.23383,4.4572 -0.86111,4.97134 -4.81489,6.31688c-0.64067,0.21803 -0.9099,2.17115 -1.4044,2.63316c-1.12927,1.05506 -1.47073,0.4844 -2.76062,1.15097c-0.2138,0.11049 -0.17118,1.98487 -0.39009,2.36553c-0.50365,0.87576 -2.76941,4.14937 -5.72252,3.61179c-2.44063,-0.44429 -5.65176,-4.45656 -6.05504,-6.01755c-0.50175,-1.94216 -0.46361,-4.05951 0.17531,-5.77926c0,0 -2.29873,-3.7881 -2.5362,-4.45258z" fill="#a7bbef" stroke-width="4" stroke-linecap="butt"/><path d="M260.83984,189.83522c0,0 -0.26753,4.33095 -1.5236,5.69074c-1.2835,1.38949 -6.0969,2.55901 -6.0969,2.55901" fill="none" stroke-width="3.5" stroke-linecap="round"/></g></g></g></svg>