<svg version="1.1" xmlns="http://www.w3.org/2000/svg" xmlns:xlink="http://www.w3.org/1999/xlink" width="81.25" height="79.78333" viewBox="0,0,81.25,79.78333"><g transform="translate(-199.375,-140.10834)"><g data-paper-data="{&quot;isPaintingLayer&quot;:true}" fill-rule="nonzero" stroke-linejoin="miter" stroke-miterlimit="10" stroke-dasharray="" stroke-dashoffset="0" style="mix-blend-mode: normal"><path d="M240,141.60834c21.60814,0 39.125,17.18853 39.125,38.39167c0,21.20313 -17.51686,38.39166 -39.125,38.39166c-21.60814,0 -39.125,-17.18853 -39.125,-38.39166c0,-21.20313 17.51686,-38.39167 39.125,-38.39167z" data-paper-data="{&quot;index&quot;:null}" fill="#ffcc00" stroke="#000000" stroke-width="3" stroke-linecap="butt"/><path d="M240,200.81758c-10.90762,0 -19.75,5.21822 -19.75,-2.9625c0,-8.18072 8.84238,-14.8125 19.75,-14.8125c10.90762,0 19.75,6.63178 19.75,14.8125c0,8.18072 -8.84238,2.9625 -19.75,2.9625z" data-paper-data="{&quot;index&quot;:null}" fill="#000000" stroke="none" stroke-width="0" stroke-linecap="butt"/><path d="M240.14286,188.99501c-5.31005,0 -9.61469,0.53152 -9.61469,-0.80921c0,-1.34073 4.30464,-2.42761 9.61469,-2.42761c5.31005,0 9.61469,1.08688 9.61469,2.42761c0,1.34074 -4.30464,0.80921 -9.61469,0.80921z" data-paper-data="{&quot;index&quot;:null}" fill="#ffffff" stroke="none" stroke-width="0" stroke-linecap="butt"/><path d="M232.20381,165.26223c0,0 -2.67711,4.68658 -4.53989,6.2268c-1.95202,1.61401 -6.91703,3.24626 -6.91703,3.24626" data-paper-data="{&quot;index&quot;:null}" fill="none" stroke="#000000" stroke-width="5.5" stroke-linecap="round"/><path d="M259.25311,174.7353c0,0 -4.96501,-1.63225 -6.91703,-3.24626c-1.86279,-1.54022 -4.5399,-6.22681 -4.5399,-6.22681" data-paper-data="{&quot;index&quot;:null}" fill="none" stroke="#000000" stroke-width="5.5" stroke-linecap="round"/><path d="M222.23822,154.74629c0,0 -2.45434,4.80698 -4.24284,6.43288c-1.87417,1.70379 -6.75716,3.56712 -6.75716,3.56712" data-paper-data="{&quot;index&quot;:null}" fill="none" stroke="#000000" stroke-width="5.5" stroke-linecap="round"/><path d="M268.76178,164.74629c0,0 -4.88299,-1.86333 -6.75716,-3.56712c-1.7885,-1.6259 -4.24284,-6.43288 -4.24284,-6.43288" data-paper-data="{&quot;index&quot;:null}" fill="none" stroke="#000000" stroke-width="5.5" stroke-linecap="round"/></g></g></svg>