<svg version="1.1" xmlns="http://www.w3.org/2000/svg" xmlns:xlink="http://www.w3.org/1999/xlink" width="81.25" height="79.78333" viewBox="0,0,81.25,79.78333"><g transform="translate(-199.375,-140.10834)"><g data-paper-data="{&quot;isPaintingLayer&quot;:true}" fill-rule="nonzero" stroke-linejoin="miter" stroke-miterlimit="10" stroke-dasharray="" stroke-dashoffset="0" style="mix-blend-mode: normal"><path d="M240,141.60834c21.60814,0 39.125,17.18853 39.125,38.39167c0,21.20313 -17.51686,38.39166 -39.125,38.39166c-21.60814,0 -39.125,-17.18853 -39.125,-38.39166c0,-21.20313 17.51686,-38.39167 39.125,-38.39167z" data-paper-data="{&quot;index&quot;:null}" fill="#ffcc00" stroke="#000000" stroke-width="3" stroke-linecap="butt"/><path d="M231.375,171.26014c0,3.94063 -2.68629,7.13514 -6,7.13514c-3.31371,0 -6,-3.19451 -6,-7.13514c0,-3.94063 2.68629,-7.13513 6,-7.13513c3.31371,0 6,3.19451 6,7.13513z" data-paper-data="{&quot;index&quot;:null}" fill="#000000" stroke="none" stroke-width="0" stroke-linecap="butt"/><path d="M253.25,188.19083c-1.87158,9.12675 -9.39117,9.40841 -13.96641,9.36525c-4.23117,-0.03992 -11.3128,-1.34292 -12.53359,-9.61525" data-paper-data="{&quot;index&quot;:null}" fill="none" stroke="#000000" stroke-width="5" stroke-linecap="round"/><path d="M245.17564,174.0387c0.41012,-4.17749 3.99298,-5.29353 6.98549,-5.29353c2.99252,0 6.26889,1.28744 6.51979,5.29353" data-paper-data="{&quot;index&quot;:null}" fill="none" stroke="#000000" stroke-width="4.5" stroke-linecap="round"/><path d="M214.76127,164.88075c-0.72536,-3.42185 1.7909,-7.28817 3.67399,-9.04572c1.86676,-1.74231 5.0685,-2.44305 7.57601,-1.45428" data-paper-data="{&quot;index&quot;:null}" fill="none" stroke="#000000" stroke-width="3.5" stroke-linecap="round"/><path d="M252.62515,159.34988c2.02558,-1.77829 5.27569,-2.20126 7.62158,-1.19265c2.36641,1.01743 6.04162,3.80539 6.51583,7.27099" data-paper-data="{&quot;index&quot;:null}" fill="none" stroke="#000000" stroke-width="3.5" stroke-linecap="round"/></g></g></svg>