<svg version="1.1" xmlns="http://www.w3.org/2000/svg" xmlns:xlink="http://www.w3.org/1999/xlink" width="81.25" height="79.78333" viewBox="0,0,81.25,79.78333"><g transform="translate(-199.375,-140.10834)"><g data-paper-data="{&quot;isPaintingLayer&quot;:true}" fill-rule="nonzero" stroke-linejoin="miter" stroke-miterlimit="10" stroke-dasharray="" stroke-dashoffset="0" style="mix-blend-mode: normal"><path d="M240,141.60834c21.60814,0 39.125,17.18853 39.125,38.39167c0,21.20313 -17.51686,38.39166 -39.125,38.39166c-21.60814,0 -39.125,-17.18853 -39.125,-38.39166c0,-21.20313 17.51686,-38.39167 39.125,-38.39167z" data-paper-data="{&quot;index&quot;:null}" fill="#ffcc00" stroke="#000000" stroke-width="3" stroke-linecap="butt"/><path d="M254.625,164.125c3.31371,0 6,3.19451 6,7.13514c0,3.94063 -2.68629,7.13514 -6,7.13514c-3.31371,0 -6,-3.19451 -6,-7.13514c0,-3.94063 2.68629,-7.13514 6,-7.13514z" data-paper-data="{&quot;index&quot;:null}" fill="#000000" stroke="none" stroke-width="0" stroke-linecap="butt"/><path d="M231.375,171.26014c0,3.94063 -2.68629,7.13514 -6,7.13514c-3.31371,0 -6,-3.19451 -6,-7.13514c0,-3.94063 2.68629,-7.13513 6,-7.13513c3.31371,0 6,3.19451 6,7.13513z" fill="#000000" stroke="none" stroke-width="0" stroke-linecap="butt"/><path d="M259.75,187.64492c0,8.18072 -8.84238,14.8125 -19.75,14.8125c-10.90762,0 -19.75,-6.63178 -19.75,-14.8125c0,-8.18072 8.84238,-2.9625 19.75,-2.9625c10.90762,0 19.75,-5.21822 19.75,2.9625z" fill="#000000" stroke="none" stroke-width="0" stroke-linecap="butt"/><path d="M253.16667,190.5c0,0 -4.5616,21.66667 -13.16667,21.66667c-8.60506,0 -13.16666,-21.66667 -13.16666,-21.66667z" fill="#ff0000" stroke="#000000" stroke-width="3.5" stroke-linecap="butt"/><path d="M240,190.5v11.66667" fill="none" stroke="#000000" stroke-width="2.5" stroke-linecap="round"/></g></g></svg>