<svg version="1.1" xmlns="http://www.w3.org/2000/svg" xmlns:xlink="http://www.w3.org/1999/xlink" width="81.25" height="79.78333" viewBox="0,0,81.25,79.78333"><g transform="translate(-199.375,-140.10834)"><g data-paper-data="{&quot;isPaintingLayer&quot;:true}" fill-rule="nonzero" stroke-linejoin="miter" stroke-miterlimit="10" stroke-dasharray="" stroke-dashoffset="0" style="mix-blend-mode: normal"><path d="M279.125,180.00001c0,21.20313 -17.51686,38.39166 -39.125,38.39166c-21.60814,0 -39.125,-17.18853 -39.125,-38.39166c0,-21.20314 17.51686,-38.39167 39.125,-38.39167c21.60814,0 39.125,17.18854 39.125,38.39167z" data-paper-data="{&quot;index&quot;:null}" fill="#9eff00" stroke="#000000" stroke-width="3" stroke-linecap="butt"/><path d="M232.29031,191.50167c0,0 4.8388,-1.25 7.25,-1.25c2.57768,0 7.75,1.25 7.75,1.25" data-paper-data="{&quot;index&quot;:null}" fill="none" stroke="#000000" stroke-width="4.5" stroke-linecap="round"/><path d="M252.29031,200.10583c0,0 -4.75,-5.12153 -4.75,-7.52083c0,-2.20175 4.75,-6.33333 4.75,-6.33333" data-paper-data="{&quot;index&quot;:null}" fill="none" stroke="#000000" stroke-width="4.5" stroke-linecap="round"/><path d="M227.70969,186.25167c0,0 4.75,4.13158 4.75,6.33334c0,2.3993 -4.75,7.52084 -4.75,7.52084" data-paper-data="{&quot;index&quot;:null}" fill="none" stroke="#000000" stroke-width="4.5" stroke-linecap="round"/><path d="M231.375,171.26014c0,3.94063 -2.68629,7.13514 -6,7.13514c-3.31371,0 -6,-3.19451 -6,-7.13514c0,-3.94063 2.68629,-7.13513 6,-7.13513c3.31371,0 6,3.19451 6,7.13513z" data-paper-data="{&quot;index&quot;:null}" fill="#000000" stroke="none" stroke-width="0" stroke-linecap="butt"/><path d="M215.81994,176.33601l-3.87237,-6.7964l18.98994,-10.81985l3.87237,6.7964z" data-paper-data="{&quot;index&quot;:null}" fill="#9eff00" stroke="none" stroke-width="0" stroke-linecap="butt"/><path d="M223.79031,157.00167c0,0 -2.23695,5.1401 -3.81942,6.6786c-1.39342,1.35471 -5.18058,2.0714 -5.18058,2.0714" data-paper-data="{&quot;index&quot;:null}" fill="none" stroke="#000000" stroke-width="4.5" stroke-linecap="round"/><path d="M254.625,164.125c3.31371,0 6,3.1945 6,7.13513c0,3.94063 -2.68629,7.13514 -6,7.13514c-3.31371,0 -6,-3.19451 -6,-7.13514c0,-3.94062 2.68629,-7.13513 6,-7.13513z" data-paper-data="{&quot;index&quot;:null}" fill="#000000" stroke="none" stroke-width="0" stroke-linecap="butt"/><path d="M245.19011,165.51616l3.87237,-6.7964l18.98995,10.81985l-3.87237,6.7964z" data-paper-data="{&quot;index&quot;:null}" fill="#9eff00" stroke="none" stroke-width="0" stroke-linecap="butt"/><path d="M265.20968,165.75167c0,0 -3.78716,-0.71669 -5.18059,-2.0714c-1.58247,-1.5385 -3.81941,-6.6786 -3.81941,-6.6786" data-paper-data="{&quot;index&quot;:null}" fill="none" stroke="#000000" stroke-width="4.5" stroke-linecap="round"/></g></g></svg>
