<svg version="1.1" xmlns="http://www.w3.org/2000/svg" xmlns:xlink="http://www.w3.org/1999/xlink" width="81.25" height="79.78333" viewBox="0,0,81.25,79.78333"><g transform="translate(-199.375,-140.10834)"><g data-paper-data="{&quot;isPaintingLayer&quot;:true}" fill-rule="nonzero" stroke-linejoin="miter" stroke-miterlimit="10" stroke-dasharray="" stroke-dashoffset="0" style="mix-blend-mode: normal"><path d="M240,141.60834c21.60814,0 39.125,17.18853 39.125,38.39167c0,21.20313 -17.51686,38.39166 -39.125,38.39166c-21.60814,0 -39.125,-17.18853 -39.125,-38.39166c0,-21.20313 17.51686,-38.39167 39.125,-38.39167z" data-paper-data="{&quot;index&quot;:null}" fill="#ffcc00" stroke="#000000" stroke-width="3" stroke-linecap="butt"/><path d="M253.25,188.19083c-1.87158,9.12675 -9.39117,9.40841 -13.96641,9.36525c-4.23117,-0.03992 -11.3128,-1.34292 -12.53359,-9.61525" data-paper-data="{&quot;index&quot;:null}" fill="none" stroke="#000000" stroke-width="5" stroke-linecap="round"/><path d="M221.31907,172.5387c0.25091,-4.00609 3.52728,-5.29353 6.5198,-5.29353c2.99252,0 6.57537,1.11604 6.98549,5.29353" data-paper-data="{&quot;index&quot;:null}" fill="none" stroke="#000000" stroke-width="4.5" stroke-linecap="round"/><path d="M245.17564,172.5387c0.41012,-4.17749 3.99297,-5.29353 6.98549,-5.29353c2.99252,0 6.26889,1.28744 6.5198,5.29353" data-paper-data="{&quot;index&quot;:null}" fill="none" stroke="#000000" stroke-width="4.5" stroke-linecap="round"/><path d="M266.23873,179.47797c3.17564,0 5.75,2.21681 5.75,4.95139c0,2.73458 -2.57436,4.95139 -5.75,4.95139c-3.17564,0 -5.75,-2.21681 -5.75,-4.95139c0,-2.73458 2.57436,-4.95139 5.75,-4.95139z" data-paper-data="{&quot;index&quot;:null}" fill="#ff5600" stroke="none" stroke-width="0" stroke-linecap="butt"/><path d="M219.51128,184.42937c0,2.73458 -2.57437,4.95139 -5.75,4.95139c-3.17563,0 -5.75,-2.21681 -5.75,-4.95139c0,-2.73458 2.57437,-4.95139 5.75,-4.95139c3.17564,0 5.75,2.21681 5.75,4.95139z" fill="#ff5600" stroke="none" stroke-width="0" stroke-linecap="butt"/></g></g></svg>