<svg version="1.1" xmlns="http://www.w3.org/2000/svg" xmlns:xlink="http://www.w3.org/1999/xlink" width="81.25" height="79.78333" viewBox="0,0,81.25,79.78333"><g transform="translate(-199.375,-140.10834)"><g data-paper-data="{&quot;isPaintingLayer&quot;:true}" fill-rule="nonzero" stroke-linecap="butt" stroke-linejoin="miter" stroke-miterlimit="10" stroke-dasharray="" stroke-dashoffset="0" style="mix-blend-mode: normal"><path d="M240,141.60834c21.60814,0 39.125,17.18853 39.125,38.39167c0,21.20313 -17.51686,38.39166 -39.125,38.39166c-21.60814,0 -39.125,-17.18853 -39.125,-38.39166c0,-21.20313 17.51686,-38.39167 39.125,-38.39167z" data-paper-data="{&quot;index&quot;:null}" fill="#ffcc00" stroke="#000000" stroke-width="3"/><path d="M254.63111,189.74657c0,6.06041 -6.55057,10.97333 -14.63111,10.97333c-8.08054,0 -14.63111,-4.91293 -14.63111,-10.97333c0,-6.06041 6.55057,-2.19467 14.63111,-2.19467c8.08054,0 14.63111,-3.86574 14.63111,2.19467z" data-paper-data="{&quot;index&quot;:null}" fill="#000000" stroke="none" stroke-width="0"/><path d="M270.49588,170.37979c-0.78133,1.64671 -2.16272,2.88814 -3.88296,3.49426l-15.68632,5.49254l-5.52164,-15.67113c-0.60613,-1.72024 -0.50486,-3.57472 0.2824,-5.21859c0.78726,-1.64388 2.16597,-2.88607 3.88335,-3.48625c1.71144,-0.60303 3.56692,-0.5065 5.20486,0.27793c1.64387,0.78726 2.89118,2.17036 3.49729,3.89059l0.7011,1.98422c0.16391,0.46516 0.67064,0.70784 1.1358,0.54394l1.96788,-0.69143c1.72023,-0.60613 3.57973,-0.50135 5.21767,0.28307c1.63793,0.78442 2.87629,2.16957 3.48526,3.88385c0.60612,1.72023 0.50256,3.5731 -0.2847,5.21698z" data-paper-data="{&quot;noHover&quot;:false,&quot;origItem&quot;:[&quot;Path&quot;,{&quot;applyMatrix&quot;:true,&quot;segments&quot;:[[[562.29634,329.87524],[0.0394,10.91505],[0,-10.91505]],[[550.35677,300.99173],[7.72329,7.72329],[-7.72329,-7.68388]],[[521.51266,289.05216],[10.87565,0],[-10.87565,0]],[[492.62915,301.03113],[7.72329,-7.72329],[0,0]],[[483.80254,309.85775],[0,0],[-2.08844,2.08844]],[[476.27627,309.85775],[2.08844,2.08844],[0,0]],[[467.37085,300.95233],[0,0],[-7.72329,-7.72329]],[[438.44793,288.97335],[10.91505,0],[-10.87565,0]],[[409.64323,300.91292],[7.68388,-7.68388],[-7.72329,7.68388]],[[397.70366,329.75703],[0,-10.91505],[0,10.91505]],[[409.68263,358.64054],[-7.72329,-7.72329],[0,0]],[479.94089,428.8988],[[550.35677,358.75876],[0,0],[7.72329,-7.72329]]],&quot;closed&quot;:true,&quot;fillColor&quot;:[0,0,0,1]}],&quot;index&quot;:null}" fill="#ff0000" stroke="#000000" stroke-width="2.5"/><path d="M209.50413,170.37977c-0.78726,-1.64388 -0.89082,-3.49675 -0.2847,-5.21698c0.60897,-1.71429 1.84732,-3.09942 3.48526,-3.88385c1.63795,-0.78442 3.49744,-0.88921 5.21767,-0.28307l1.96788,0.69143c0.46516,0.1639 0.97189,-0.07878 1.1358,-0.54394l0.7011,-1.98422c0.60611,-1.72023 1.85342,-3.10333 3.49729,-3.89059c1.63795,-0.78442 3.49342,-0.88097 5.20487,-0.27793c1.71739,0.60018 3.09609,1.84237 3.88335,3.48624c0.78726,1.64388 0.88853,3.49836 0.2824,5.21859l-5.52164,15.67113l-15.68631,-5.49254c-1.72024,-0.60612 -3.10163,-1.84755 -3.88296,-3.49426z" data-paper-data="{&quot;noHover&quot;:false,&quot;origItem&quot;:[&quot;Path&quot;,{&quot;applyMatrix&quot;:true,&quot;segments&quot;:[[[562.29634,329.87524],[0.0394,10.91505],[0,-10.91505]],[[550.35677,300.99173],[7.72329,7.72329],[-7.72329,-7.68388]],[[521.51266,289.05216],[10.87565,0],[-10.87565,0]],[[492.62915,301.03113],[7.72329,-7.72329],[0,0]],[[483.80254,309.85775],[0,0],[-2.08844,2.08844]],[[476.27627,309.85775],[2.08844,2.08844],[0,0]],[[467.37085,300.95233],[0,0],[-7.72329,-7.72329]],[[438.44793,288.97335],[10.91505,0],[-10.87565,0]],[[409.64323,300.91292],[7.68388,-7.68388],[-7.72329,7.68388]],[[397.70366,329.75703],[0,-10.91505],[0,10.91505]],[[409.68263,358.64054],[-7.72329,-7.72329],[0,0]],[479.94089,428.8988],[[550.35677,358.75876],[0,0],[7.72329,-7.72329]]],&quot;closed&quot;:true,&quot;fillColor&quot;:[0,0,0,1]}],&quot;index&quot;:null}" fill="#ff0000" stroke="#000000" stroke-width="2.5"/></g></g></svg>