<svg version="1.1" xmlns="http://www.w3.org/2000/svg" xmlns:xlink="http://www.w3.org/1999/xlink" width="81.3517" height="79.78333" viewBox="0,0,81.3517,79.78333"><g transform="translate(-199.375,-140.10834)"><g data-paper-data="{&quot;isPaintingLayer&quot;:true}" fill-rule="nonzero" stroke-linejoin="miter" stroke-miterlimit="10" stroke-dasharray="" stroke-dashoffset="0" style="mix-blend-mode: normal"><path d="M240,141.60834c21.60814,0 39.125,17.18853 39.125,38.39167c0,21.20313 -17.51686,38.39166 -39.125,38.39166c-21.60814,0 -39.125,-17.18853 -39.125,-38.39166c0,-21.20313 17.51686,-38.39167 39.125,-38.39167z" data-paper-data="{&quot;index&quot;:null}" fill="#ffcc00" stroke="#000000" stroke-width="3" stroke-linecap="butt"/><path d="M231.375,171.26014c0,3.94063 -2.68629,7.13514 -6,7.13514c-3.31371,0 -6,-3.19451 -6,-7.13514c0,-3.94063 2.68629,-7.13513 6,-7.13513c3.31371,0 6,3.19451 6,7.13513z" data-paper-data="{&quot;index&quot;:null}" fill="#000000" stroke="none" stroke-width="0" stroke-linecap="butt"/><path d="M245.17564,174.0387c0.41012,-4.17749 3.99298,-5.29353 6.98549,-5.29353c2.99252,0 6.26889,1.28744 6.51979,5.29353" data-paper-data="{&quot;index&quot;:null}" fill="none" stroke="#000000" stroke-width="4.5" stroke-linecap="round"/><path d="M214.76127,164.88074c-0.72536,-3.42185 1.7909,-7.28817 3.67399,-9.04572c1.86676,-1.74231 5.0685,-2.44305 7.57601,-1.45428" data-paper-data="{&quot;index&quot;:null}" fill="none" stroke="#000000" stroke-width="3.5" stroke-linecap="round"/><path d="M252.62515,159.34988c2.02558,-1.77829 5.27569,-2.20126 7.62158,-1.19265c2.36641,1.01743 6.04162,3.80539 6.51583,7.27099" data-paper-data="{&quot;index&quot;:null}" fill="none" stroke="#000000" stroke-width="3.5" stroke-linecap="round"/><path d="M241.09431,182.63864c3.97431,-0.36976 6.8,2.01389 6.8,4.35517c0,2.34128 -2.48593,5.1817 -6.8,5.04283" data-paper-data="{&quot;index&quot;:null}" fill="none" stroke="#000000" stroke-width="5" stroke-linecap="round"/><path d="M241.09431,191.83863c3.97431,-0.36975 6.8,2.01389 6.8,4.35517c0,2.34128 -2.48593,5.1817 -6.8,5.04283" data-paper-data="{&quot;index&quot;:null}" fill="none" stroke="#000000" stroke-width="5" stroke-linecap="round"/><path d="M279.34444,192.27515c-0.61594,1.71544 -1.86882,3.08646 -3.52126,3.85849l-15.07151,7.00558l-7.03305,-15.05354c-0.77204,-1.65245 -0.85327,-3.50791 -0.23115,-5.22111c0.62212,-1.71321 1.87226,-3.08472 3.52244,-3.85055c1.64399,-0.76809 3.49999,-0.85413 5.20701,-0.23425c1.7132,0.62212 3.09023,1.87612 3.86225,3.52856l0.89246,1.90583c0.20877,0.44683 0.73687,0.6386 1.1837,0.42984l1.89052,-0.88123c1.65244,-0.77204 3.51324,-0.85027 5.22026,-0.23039c1.70701,0.61988 3.07534,1.8768 3.84962,3.52303c0.77203,1.65244 0.85082,3.50652 0.2287,5.21973z" data-paper-data="{&quot;noHover&quot;:false,&quot;origItem&quot;:[&quot;Path&quot;,{&quot;applyMatrix&quot;:true,&quot;segments&quot;:[[[562.29634,329.87524],[0.0394,10.91505],[0,-10.91505]],[[550.35677,300.99173],[7.72329,7.72329],[-7.72329,-7.68388]],[[521.51266,289.05216],[10.87565,0],[-10.87565,0]],[[492.62915,301.03113],[7.72329,-7.72329],[0,0]],[[483.80254,309.85775],[0,0],[-2.08844,2.08844]],[[476.27627,309.85775],[2.08844,2.08844],[0,0]],[[467.37085,300.95233],[0,0],[-7.72329,-7.72329]],[[438.44793,288.97335],[10.91505,0],[-10.87565,0]],[[409.64323,300.91292],[7.68388,-7.68388],[-7.72329,7.68388]],[[397.70366,329.75703],[0,-10.91505],[0,10.91505]],[[409.68263,358.64054],[-7.72329,-7.72329],[0,0]],[479.94089,428.8988],[[550.35677,358.75876],[0,0],[7.72329,-7.72329]]],&quot;closed&quot;:true,&quot;fillColor&quot;:[0,0,0,1]}],&quot;index&quot;:null}" fill="#ff0000" stroke="#000000" stroke-width="2.5" stroke-linecap="butt"/></g></g></svg>