<svg version="1.1" xmlns="http://www.w3.org/2000/svg" xmlns:xlink="http://www.w3.org/1999/xlink" width="81.25" height="79.78333" viewBox="0,0,81.25,79.78333"><g transform="translate(-199.375,-140.10834)"><g data-paper-data="{&quot;isPaintingLayer&quot;:true}" stroke="#000000" stroke-linejoin="miter" stroke-miterlimit="10" stroke-dasharray="" stroke-dashoffset="0" style="mix-blend-mode: normal"><path d="M279.125,180.00001c0,21.20313 -17.51686,38.39166 -39.125,38.39166c-21.60814,0 -39.125,-17.18853 -39.125,-38.39166c0,-21.20314 17.51686,-38.39167 39.125,-38.39167c21.60814,0 39.125,17.18854 39.125,38.39167z" data-paper-data="{&quot;index&quot;:null}" fill="#ffcc00" fill-rule="nonzero" stroke-width="3" stroke-linecap="butt"/><path d="M205.73252,163.21312c0.98046,-0.97637 12.53351,-1.84653 24.96284,-0.49023c2.47974,0.26963 3.42752,0.97637 9.30004,0.97637c5.87661,0 6.8203,-0.70471 9.30208,-0.97637c12.43751,-1.35834 23.98851,-0.48818 24.96693,0.48819c0.49227,0.49023 0.49227,2.44502 0,2.9332c-0.48818,0.48818 -2.93933,1.95479 -3.42547,3.41934c-0.49023,1.4666 -1.46864,10.86673 -4.40184,13.31174c-3.03329,2.51651 -14.45969,1.57895 -16.64938,0.48614c-4.89207,-2.43685 -5.49669,-10.34382 -6.36276,-13.79789c-0.49023,-1.95274 -3.42751,-1.95274 -3.42751,-1.95274c0,0 -2.93729,0 -3.42547,1.95478c-0.86607,3.45202 -1.4666,11.33654 -6.36276,13.77747c-2.18764,1.08871 -13.61405,2.02627 -16.64325,-0.49023c-2.93728,-2.44502 -3.91774,-11.82063 -4.40797,-13.28519c-0.48818,-1.4666 -2.93524,-2.9332 -3.42547,-3.42138c-0.48818,-0.48818 -0.48818,-2.44502 0,-2.9332z" fill="#252a2f" fill-rule="evenodd" stroke-width="2.5" stroke-linecap="butt"/><path d="M253.25,190.94083c-1.87158,9.12675 -9.39117,9.40841 -13.96641,9.36525c-4.23117,-0.03992 -11.3128,-1.34292 -12.53359,-9.61525" fill="none" fill-rule="nonzero" stroke-width="5" stroke-linecap="round"/></g></g></svg>