<svg version="1.1" xmlns="http://www.w3.org/2000/svg" xmlns:xlink="http://www.w3.org/1999/xlink" width="80.83811" height="80.22024" viewBox="0,0,80.83811,80.22024"><g transform="translate(-199.58095,-139.88988)"><g data-paper-data="{&quot;isPaintingLayer&quot;:true}" fill-rule="nonzero" stroke-linejoin="miter" stroke-miterlimit="10" stroke-dasharray="" stroke-dashoffset="0" style="mix-blend-mode: normal"><path d="M272.97168,158.93737c11.41453,17.86844 5.90592,41.78373 -12.30383,53.4163c-18.20975,11.63257 -42.22498,6.5774 -53.63952,-11.29104c-11.41454,-17.86845 -5.90593,-41.78374 12.30383,-53.41631c18.20975,-11.63257 42.22499,-6.57739 53.63952,11.29105z" data-paper-data="{&quot;index&quot;:null}" fill="#ffcc00" stroke="#000000" stroke-width="3" stroke-linecap="butt"/><path d="M242.52074,183.946c9.19214,-5.87203 13.83466,-15.02979 18.23869,-8.13568c4.40402,6.89411 0.52248,17.24311 -8.66966,23.11514c-9.19214,5.87203 -20.21401,5.04348 -24.61804,-1.85063c-4.40402,-6.89411 5.85687,-7.2568 15.04901,-13.12883z" data-paper-data="{&quot;index&quot;:null}" fill="#000000" stroke="none" stroke-width="0" stroke-linecap="butt"/><path d="M244.118,186.44636c8.31947,-5.31456 12.94693,-12.93654 14.36656,-10.71423c1.41963,2.22231 -4.17378,8.33216 -12.49326,13.64672c-8.31947,5.31456 -16.21458,7.82132 -17.63422,5.599c-1.41963,-2.22231 7.44144,-3.21694 15.76091,-8.5315z" data-paper-data="{&quot;index&quot;:null}" fill="#ffffff" stroke="none" stroke-width="0" stroke-linecap="butt"/><path d="M214.63658,172.7821l13.30756,0.39869l-5.70743,11.49863" data-paper-data="{&quot;index&quot;:null}" fill="none" stroke="#000000" stroke-width="4.5" stroke-linecap="round"/><path d="M251.71313,165.8496l-12.83255,0.34489l5.23243,-12.24221" data-paper-data="{&quot;index&quot;:null}" fill="none" stroke="#000000" stroke-width="4.5" stroke-linecap="round"/><path d="M221.6477,185.93135c0,0 4.55415,5.5743 4.68019,9.76765c0.12604,4.19335 -1.73396,7.65169 -4.15442,7.72445c-2.42047,0.07275 -4.48482,-3.26765 -4.61085,-7.46099c-0.12604,-4.19335 4.0851,-10.03111 4.0851,-10.03111z" data-paper-data="{&quot;index&quot;:null}" fill="#66c7ff" stroke="#000000" stroke-width="3" stroke-linecap="butt"/><path d="M263.91568,166.35166c3.75185,1.87715 5.91495,5.15445 4.83144,7.32008c-1.08352,2.16563 -5.00335,2.39949 -8.7552,0.52235c-3.75185,-1.87715 -6.89524,-8.35265 -6.89524,-8.35265c0,0 7.06715,-1.36693 10.819,0.51022z" fill="#66c7ff" stroke="#000000" stroke-width="3" stroke-linecap="butt"/></g></g></svg>